<svg width="72" height="72" viewBox="0 0 72 72" fill="none" xmlns="http://www.w3.org/2000/svg">
<path d="M45.4167 21H10.5833C9.70888 21 9 22.1193 9 23.5C9 24.8807 9.70888 26 10.5833 26H45.4167C46.2911 26 47 24.8807 47 23.5C47 22.1193 46.2911 21 45.4167 21Z" fill="#7D7D7D"/>
<path d="M34.65 34H10.35C9.60442 34 9 34.8954 9 36C9 37.1046 9.60442 38 10.35 38H34.65C35.3956 38 36 37.1046 36 36C36 34.8954 35.3956 34 34.65 34Z" fill="#7D7D7D"/>
<path d="M45.4167 46H10.5833C9.70888 46 9 47.1193 9 48.5C9 49.8807 9.70888 51 10.5833 51H45.4167C46.2911 51 47 49.8807 47 48.5C47 47.1193 46.2911 46 45.4167 46Z" fill="#7D7D7D"/>
</svg>
