<svg width="673" height="808" viewBox="0 0 673 808" fill="none" xmlns="http://www.w3.org/2000/svg">
<g clip-path="url(#clip0_2117_10)">
<mask id="mask0_2117_10" style="mask-type:luminance" maskUnits="userSpaceOnUse" x="0" y="0" width="673" height="808">
<path d="M673 0H0V808H673V0Z" fill="white"/>
</mask>
<g mask="url(#mask0_2117_10)">
<path d="M0.53415 184.741C-3.63115 156.236 17.0174 129.882 46.6536 125.875L475.946 67.8472C505.579 63.8413 532.982 83.7008 537.147 112.206L621.991 692.839C626.155 721.346 605.506 747.699 575.869 751.705L164.467 807.314C124.952 812.659 88.4166 786.176 82.8635 748.174L0.53415 184.741Z" fill="url(#paint0_linear_2117_10)"/>
<path d="M42.6413 128.661C38.1291 96.2812 60.4972 66.3431 92.6014 61.7926L524.427 0.583546C556.529 -3.9671 586.212 18.5927 590.726 50.9722L672.42 637.255C676.933 669.634 654.564 699.572 622.462 704.126L190.637 765.332C158.533 769.885 128.85 747.324 124.338 714.945L42.6413 128.661Z" fill="url(#paint1_linear_2117_10)"/>
<path d="M80.3306 141.996C77.1199 118.992 93.0351 97.7217 115.878 94.4884L512.935 38.2896C535.775 35.0565 556.895 51.0845 560.108 74.0894L636.835 623.919C640.044 646.926 624.132 668.195 601.288 671.427L204.232 727.625C181.39 730.861 160.27 714.832 157.059 691.829L80.3306 141.996Z" fill="#F3F3F3"/>
</g>
<path d="M322.811 165.908C322.395 166.166 319.648 169.987 316.25 174.344C309.189 183.396 307.928 184.879 303.939 188.678C291.779 200.302 277.654 207.905 258.986 212.877C251.892 214.773 248.215 215.414 239.553 216.261C231.701 217.02 231.562 217.04 230.892 217.702C229.48 219.122 229.313 217.561 235.147 259.067C241.267 302.769 242.173 308.3 244.539 315.32C247.012 322.693 250.866 331.337 253.544 335.792C254.246 336.937 254.722 337.368 256.098 337.482C258.704 337.674 268.293 337.448 273.504 337.04C281.353 336.451 296.862 334.587 306.527 332.634C316.461 330.585 325.459 328.982 334.945 326.375C348.413 322.688 358.554 319.704 366.342 317.114C381.706 312.022 407.213 301.596 418.669 295.734C426.196 291.908 436.284 285.988 440.106 283.204C441.649 282.105 441.934 281.724 442.16 280.729C442.382 279.707 441.615 273.958 436.139 235.739C429.26 187.929 429.661 190.136 427.849 189.151C427.047 188.699 426.881 188.723 418.437 190.303C413.718 191.179 408.646 191.963 407.135 192.095C400.46 192.572 390.886 192.588 385.035 192.097C382.14 191.861 373.033 190.395 370.043 189.692C363.59 188.155 354.276 184.454 346.458 180.311C342.562 178.238 333.58 172.411 330.002 169.386C325.555 165.637 323.978 165.186 322.811 165.908Z" fill="url(#paint2_linear_2117_10)"/>
<path d="M439.117 221.689C439.117 221.689 439.914 227.249 440.804 233.461L442.418 244.721L445.534 244.964C448.577 245.433 452.765 246.586 456.212 247.903C462.598 250.355 465.827 254.306 465.924 259.727C466.021 265.345 460.47 273.076 450.526 281.182C445.78 285.033 436.937 290.944 431.909 293.619C430.751 294.238 428.737 295.404 427.432 296.186C424.387 298.066 413.886 303.281 405.182 307.191C392.675 312.835 386.096 315.364 366.407 322.095C351.988 327.052 333.685 332.112 314.983 336.042C297.526 339.71 284.615 341.282 280.811 341.387C277.243 341.826 273.27 341.868 270.886 342.041C259.282 342.914 249.566 341.666 242.034 339.917C233.856 338.006 229.294 335.632 226.696 331.929C225.561 330.337 225.458 330.013 225.108 327.572C224.738 324.993 224.77 324.819 225.575 322.326C226.22 320.308 226.867 319.084 228.448 316.875C230.736 313.66 233.852 310.1 236.386 307.811L237.359 307.06L235.059 294.592L233.408 283.076L231.283 284.062C215.945 291.895 202.352 300.441 190.266 309.817C178.057 319.324 170.175 328.38 167.473 336.014C165.238 342.363 165.639 346.353 169.024 351.584C170.329 353.576 172.658 355.393 176.902 357.727C180.992 359.97 188.738 362.425 194.326 363.264C195.714 363.461 197.951 363.848 199.316 364.077C202.401 364.653 214.093 365.38 219.757 365.36C232.9 365.342 235.264 365.229 250.16 363.997C261.835 363.029 292.162 358.365 304.773 355.621C315.702 353.203 338.787 347.428 350.311 344.217C369.656 338.837 398.398 328.853 418.321 320.588C429.579 315.916 436.166 313.046 441.781 310.316C444.486 309.022 448.36 307.192 450.41 306.275C454.268 304.533 459.761 301.735 462.025 300.335C462.754 299.89 465.637 298.259 468.449 296.724C481.352 289.693 489.933 284.131 499.953 276.353C508.466 269.725 513.91 264.416 518.473 258.298C523.012 252.213 524.994 246.862 524.683 241.529C524.555 239.057 523.876 237.286 522.016 234.383C519.441 230.451 513.578 226.905 505.859 224.645C498.522 222.472 494.365 221.738 485.207 220.901C473.21 219.821 464.235 219.864 446.559 221.071C443.22 221.295 439.388 221.65 439.117 221.689Z" fill="url(#paint3_linear_2117_10)"/>
<path d="M427.489 322.267C400.955 333.434 370.138 343.971 342.814 351.204C338.309 352.389 332.063 354.077 328.894 354.9C320.875 357.07 310.085 359.666 302.466 361.269C298.921 362.032 294.578 362.967 292.849 363.357C291.12 363.746 287.016 364.562 283.752 365.115C280.492 365.696 277.25 365.954 276.655 366.153L275.396 366.333L278.145 369.288C286.639 377.947 300.34 388.548 312.042 395.473C323.653 402.354 334.731 407.501 347.856 412.098C359.077 416.064 360.469 416.289 363.515 414.606C367.377 412.495 378.087 404.59 384.395 399.184C395.728 389.491 405.089 379.486 413.394 368.246C423.219 354.948 428.098 346.493 433.615 333.389C436.259 327.122 439.298 317.883 438.791 317.701C438.668 317.634 433.584 319.722 427.489 322.267Z" fill="url(#paint4_linear_2117_10)"/>
<path d="M268.693 531.549L288.883 528.736L303.002 557.71L308.672 525.979L328.996 523.147L318.959 569.526L332.103 593.456L346.225 520.61L370.159 517.276L346.336 617.371L327.35 620.016L306.799 584.987L296.731 624.283L277.61 626.947L227.492 537.154L251.292 533.838L284.904 600.033L290.746 573.457L268.693 531.549ZM389.883 611.303L380.112 541.105L401.506 538.124L411.277 608.322L389.883 611.303ZM378.995 533.082L376.297 513.694L397.69 510.713L400.389 530.102L378.995 533.082ZM473.121 599.705L450.895 574.178L444.468 582.843L447.315 603.301L425.922 606.282L412.335 508.673L433.729 505.692L441.583 562.118L461.344 529.787L483.941 526.638L462.876 560.378L495.852 596.538L473.121 599.705ZM502.047 595.675L492.276 525.477L513.669 522.496L523.44 592.694L502.047 595.675ZM491.159 517.454L488.46 498.066L509.854 495.085L512.552 514.473L491.159 517.454Z" fill="url(#paint5_linear_2117_10)"/>
</g>
<defs>
<linearGradient id="paint0_linear_2117_10" x1="1.88273" y1="69.0714" x2="624.769" y2="805.764" gradientUnits="userSpaceOnUse">
<stop stop-color="#B05833"/>
<stop offset="1" stop-color="#421313"/>
</linearGradient>
<linearGradient id="paint1_linear_2117_10" x1="47.0503" y1="80.6047" x2="668.567" y2="684.262" gradientUnits="userSpaceOnUse">
<stop stop-color="#FF4D00"/>
<stop offset="1" stop-color="#F99846"/>
</linearGradient>
<linearGradient id="paint2_linear_2117_10" x1="374.605" y1="377.456" x2="290.016" y2="176.329" gradientUnits="userSpaceOnUse">
<stop stop-color="#E25B05"/>
<stop offset="1" stop-color="#FF8D2D"/>
</linearGradient>
<linearGradient id="paint3_linear_2117_10" x1="387.484" y1="375.883" x2="337.092" y2="236.349" gradientUnits="userSpaceOnUse">
<stop stop-color="#FF8D2D"/>
<stop offset="1" stop-color="#FF6807"/>
</linearGradient>
<linearGradient id="paint4_linear_2117_10" x1="291.052" y1="176.179" x2="392.289" y2="389.016" gradientUnits="userSpaceOnUse">
<stop stop-color="#FF8D2D"/>
<stop offset="1" stop-color="#FF6807"/>
</linearGradient>
<linearGradient id="paint5_linear_2117_10" x1="275" y1="470.5" x2="407.981" y2="607.518" gradientUnits="userSpaceOnUse">
<stop stop-color="#E25B05"/>
<stop offset="1" stop-color="#FF8D2D"/>
</linearGradient>
<clipPath id="clip0_2117_10">
<rect width="673" height="808" fill="white"/>
</clipPath>
</defs>
</svg>
