<svg width="673" height="808" fill="none" xmlns="http://www.w3.org/2000/svg"><g clip-path="url(#a)"><mask id="b" style="mask-type:luminance" maskUnits="userSpaceOnUse" x="0" y="0" width="673" height="808"><path d="M673 0H0v808h673V0z" fill="#fff"/></mask><g mask="url(#b)"><path d="M.534 184.741c-4.165-28.505 16.483-54.859 46.12-58.866l429.292-58.028c29.633-4.006 57.036 15.854 61.201 44.359l84.844 580.633c4.164 28.507-16.485 54.86-46.122 58.866l-411.402 55.609c-39.515 5.345-76.05-21.138-81.604-59.14L.535 184.741z" fill="url(#c)"/><path d="M42.641 128.661c-4.512-32.38 17.856-62.318 49.96-66.868L524.428.583c32.102-4.55 61.786 18.01 66.299 50.39l81.694 586.282c4.513 32.379-17.856 62.317-49.958 66.871l-431.825 61.206c-32.104 4.553-61.787-18.008-66.299-50.387L42.641 128.661z" fill="url(#d)"/><path d="M80.33 141.996c-3.21-23.004 12.705-44.274 35.547-47.508L512.935 38.29c22.84-3.233 43.96 12.794 47.173 35.8l76.726 549.829c3.21 23.007-12.702 44.276-35.546 47.508l-397.056 56.198c-22.843 3.236-43.963-12.793-47.173-35.796L80.33 141.996z" fill="#F3F3F3"/></g><g filter="url(#e)"><path d="M322.811 165.908c-.416.258-3.163 4.079-6.561 8.436-7.061 9.052-8.322 10.535-12.311 14.334-12.16 11.624-26.285 19.227-44.953 24.199-7.094 1.896-10.771 2.537-19.433 3.384-7.852.759-7.991.779-8.661 1.441-1.412 1.42-1.579-.141 4.255 41.365 6.12 43.702 7.026 49.233 9.392 56.253 2.473 7.373 6.327 16.017 9.005 20.472.702 1.145 1.178 1.576 2.554 1.69 2.606.192 12.195-.034 17.406-.442 7.849-.589 23.358-2.453 33.023-4.406 9.934-2.049 18.932-3.652 28.418-6.259 13.468-3.687 23.609-6.671 31.397-9.261 15.364-5.092 40.871-15.518 52.327-21.38 7.527-3.826 17.615-9.746 21.437-12.53 1.543-1.099 1.828-1.48 2.054-2.475.222-1.022-.545-6.771-6.021-44.99-6.879-47.81-6.478-45.603-8.29-46.588-.802-.452-.968-.428-9.412 1.152-4.719.876-9.791 1.66-11.302 1.792-6.675.477-16.249.493-22.1.002-2.895-.236-12.002-1.702-14.992-2.405-6.453-1.537-15.767-5.238-23.585-9.381-3.896-2.073-12.878-7.9-16.456-10.925-4.447-3.749-6.024-4.2-7.191-3.478z" fill="url(#f)"/><path d="m439.117 221.688 1.687 11.773 1.614 11.26 3.117.242c3.042.469 7.23 1.623 10.677 2.94 6.386 2.451 9.615 6.403 9.712 11.823.097 5.618-5.454 13.349-15.398 21.456-4.746 3.851-13.589 9.762-18.617 12.436-1.158.619-3.172 1.786-4.477 2.567-3.045 1.881-13.546 7.095-22.25 11.005-12.507 5.644-19.086 8.173-38.775 14.905-14.419 4.956-32.722 10.017-51.424 13.946-17.457 3.668-30.368 5.241-34.172 5.346-3.568.439-7.541.481-9.925.653-11.604.873-21.32-.374-28.852-2.124-8.178-1.911-12.74-4.285-15.338-7.987-1.135-1.592-1.238-1.917-1.588-4.357-.369-2.58-.338-2.754.467-5.247.646-2.017 1.292-3.242 2.873-5.45 2.288-3.215 5.404-6.776 7.938-9.064l.973-.752-2.3-12.467-1.651-11.517-2.125.986c-15.338 7.834-28.931 16.379-41.017 25.756-12.209 9.507-20.091 18.563-22.793 26.196-2.235 6.349-1.834 10.339 1.551 15.57 1.305 1.992 3.634 3.809 7.878 6.144 4.09 2.243 11.836 4.697 17.424 5.537 1.388.197 3.625.583 4.99.812 3.085.576 14.777 1.304 20.441 1.284 13.143-.019 15.507-.132 30.403-1.364 11.675-.968 42.002-5.632 54.613-8.375 10.929-2.418 34.014-8.193 45.538-11.404 19.345-5.38 48.087-15.364 68.01-23.629 11.258-4.673 17.845-7.542 23.46-10.273 2.705-1.294 6.579-3.123 8.629-4.04 3.858-1.743 9.351-4.541 11.615-5.941.729-.444 3.612-2.075 6.424-3.611 12.903-7.031 21.484-12.593 31.504-20.371 8.513-6.627 13.957-11.937 18.52-18.054 4.539-6.086 6.521-11.436 6.21-16.769-.128-2.473-.806-4.243-2.667-7.146-2.575-3.933-8.438-7.478-16.157-9.738-7.337-2.174-11.494-2.908-20.651-3.744-11.998-1.08-20.973-1.038-38.649.169-3.339.225-7.171.58-7.442.618z" fill="url(#g)"/><path d="M427.489 322.267c-26.534 11.167-57.351 21.704-84.675 28.937-4.505 1.185-10.751 2.873-13.92 3.696-8.018 2.17-18.809 4.766-26.428 6.369-3.545.763-7.887 1.698-9.617 2.088-1.729.389-5.833 1.205-9.097 1.758-3.26.581-6.502.839-7.097 1.038l-1.259.18 2.749 2.955c8.494 8.659 22.195 19.26 33.897 26.185 11.611 6.881 22.689 12.028 35.814 16.625 11.221 3.966 12.613 4.191 15.659 2.508 3.862-2.111 14.572-10.016 20.881-15.422 11.332-9.693 20.693-19.698 28.999-30.938 9.824-13.298 14.704-21.753 20.221-34.857 2.643-6.267 5.683-15.506 5.175-15.688-.123-.067-5.207 2.021-11.302 4.566z" fill="url(#h)"/></g><path d="m268.693 531.549 20.19-2.813 14.119 28.974 5.67-31.731 20.324-2.832-10.037 46.379 13.144 23.93 14.122-72.846 23.934-3.334-23.823 100.095-18.986 2.645-20.551-35.029-10.068 39.296-19.121 2.664-50.118-89.793 23.8-3.316 33.612 66.195 5.842-26.576-22.053-41.908zm121.19 79.754-9.771-70.198 21.394-2.981 9.771 70.198-21.394 2.981zm-10.888-78.221-2.698-19.388 21.393-2.981 2.699 19.389-21.394 2.98zm94.126 66.623-22.226-25.527-6.427 8.665 2.847 20.458-21.393 2.981-13.587-97.609 21.394-2.981 7.854 56.426 19.761-32.331 22.597-3.149-21.065 33.74 32.976 36.16-22.731 3.167zm28.926-4.03-9.771-70.198 21.393-2.981 9.771 70.198-21.393 2.981zm-10.888-78.221-2.699-19.388 21.394-2.981 2.698 19.388-21.393 2.981z" fill="url(#i)"/></g><defs><linearGradient id="c" x1="1.883" y1="69.071" x2="624.769" y2="805.764" gradientUnits="userSpaceOnUse"><stop stop-color="#B05833"/><stop offset="1" stop-color="#421313"/></linearGradient><linearGradient id="d" x1="47.05" y1="80.605" x2="668.567" y2="684.262" gradientUnits="userSpaceOnUse"><stop stop-color="#FF4D00"/><stop offset="1" stop-color="#F99846"/></linearGradient><linearGradient id="f" x1="374.605" y1="377.456" x2="290.016" y2="176.329" gradientUnits="userSpaceOnUse"><stop stop-color="#E25B05"/><stop offset="1" stop-color="#FF8D2D"/></linearGradient><linearGradient id="g" x1="387.484" y1="375.882" x2="337.092" y2="236.349" gradientUnits="userSpaceOnUse"><stop stop-color="#FF8D2D"/><stop offset="1" stop-color="#FF6807"/></linearGradient><linearGradient id="h" x1="291.052" y1="176.179" x2="392.29" y2="389.016" gradientUnits="userSpaceOnUse"><stop stop-color="#FF8D2D"/><stop offset="1" stop-color="#FF6807"/></linearGradient><linearGradient id="i" x1="275" y1="470.5" x2="407.981" y2="607.518" gradientUnits="userSpaceOnUse"><stop stop-color="#E25B05"/><stop offset="1" stop-color="#FF8D2D"/></linearGradient><clipPath id="a"><path fill="#fff" d="M0 0h673v808H0z"/></clipPath><filter id="e" x="-83.923" y="-84.38" width="858.637" height="749.978" filterUnits="userSpaceOnUse" color-interpolation-filters="sRGB"><feFlood flood-opacity="0" result="BackgroundImageFix"/><feColorMatrix in="SourceAlpha" values="0 0 0 0 0 0 0 0 0 0 0 0 0 0 0 0 0 0 127 0" result="hardAlpha"/><feOffset/><feGaussianBlur stdDeviation="125"/><feComposite in2="hardAlpha" operator="out"/><feColorMatrix values="0 0 0 0 0.976471 0 0 0 0 0.406745 0 0 0 0 0.0862745 0 0 0 0.25 0"/><feBlend in2="BackgroundImageFix" result="effect1_dropShadow_1670_2"/><feBlend in="SourceGraphic" in2="effect1_dropShadow_1670_2" result="shape"/></filter></defs></svg>