<svg width="407" height="407" fill="none" xmlns="http://www.w3.org/2000/svg"><rect x="2" y="2" width="405" height="405" rx="119" fill="url(#a)"/><g filter="url(#b)" fill="#fff"><path d="M201.118 83.153c-.418.182-3.453 3.337-7.16 6.898-7.701 7.4-9.059 8.599-13.235 11.569-12.74 9.094-26.759 14.228-44.616 16.338-6.788.808-10.26.912-18.353.547-7.336-.338-7.466-.338-8.171.183-1.488 1.12-1.436-.339-1.54 38.642-.131 41.04-.026 46.251 1.227 53.026 1.305 7.114 3.715 15.58 5.595 20.036.496 1.147.877 1.606 2.13 1.893 2.376.521 11.241 1.58 16.097 1.892 7.309.495 21.846.829 31.009.308 9.424-.574 17.927-.86 27.012-2.007 12.896-1.615 22.634-3.022 30.152-4.377 14.829-2.658 39.708-8.886 51.038-12.768 7.44-2.528 17.517-6.645 21.407-8.703 1.567-.808 1.88-1.121 2.219-2.007.34-.912.392-6.305.392-42.212-.026-44.922.052-42.837-1.488-43.984-.679-.521-.836-.521-8.824-.182-4.464.182-9.242.234-10.651.156-6.214-.443-15.038-1.694-20.363-2.918-2.637-.6-10.834-3.153-13.497-4.195-5.744-2.267-13.837-6.905-20.494-11.752-3.315-2.423-10.822-8.975-13.72-12.232-3.603-4.039-4.996-4.662-6.166-4.151z"/><path d="M300.723 153.865v21.641l2.84.634c2.741.834 6.448 2.45 9.45 4.117 5.561 3.101 8.015 7.166 7.388 12.169-.653 5.185-6.788 11.569-17.021 17.718-4.882 2.919-13.81 7.192-18.797 8.99-1.148.417-3.158 1.225-4.464 1.772-3.054 1.329-13.418 4.742-21.955 7.192-12.27 3.543-18.666 5.003-37.698 8.598-13.94 2.658-31.473 4.899-49.226 6.046-16.569 1.07-28.674.812-32.192.406-3.347-.068-7.013-.554-9.232-.71-10.808-.73-19.596-3.162-26.305-5.768-7.284-2.84-11.174-5.628-13.08-9.38-.835-1.616-.887-1.928-.887-4.221 0-2.424.052-2.58 1.122-4.769.862-1.772 1.619-2.814 3.368-4.638 2.532-2.658 5.874-5.524 8.511-7.296l.996-.563-.474-11.782V183.2l-2.089.627c-15.167 5.185-28.82 11.257-41.195 18.292-12.505 7.14-20.964 14.435-24.462 21.106-2.898 5.55-3.054 9.276-.626 14.54.94 2.006 2.845 3.987 6.448 6.696 3.472 2.606 10.286 5.889 15.324 7.401 1.253.364 3.264 1.016 4.49 1.407 2.768.938 13.445 3.153 18.667 3.882 12.113 1.72 14.306 1.928 28.194 2.762 10.886.652 39.447.365 51.429-.495 10.391-.782 32.424-3.049 43.467-4.482 18.536-2.397 46.339-7.791 65.788-12.768 10.991-2.814 17.439-4.586 22.973-6.357 2.663-.834 6.475-2.007 8.485-2.58 3.785-1.094 9.215-2.945 11.487-3.935.731-.312 3.602-1.433 6.396-2.475 12.818-4.769 21.459-8.755 31.719-14.592 8.719-4.977 14.436-9.146 19.449-14.175 4.986-5.003 7.518-9.667 7.936-14.618.209-2.293-.183-4.013-1.514-6.931-1.854-3.961-6.788-7.999-13.601-11.1-6.475-2.971-10.208-4.195-18.536-6.176-10.912-2.579-19.188-3.726-35.635-4.951-3.106-.234-6.684-.413-6.938-.413zM276.962 248.714c-25.924 6.774-55.711 12.403-81.843 15.451-4.308.495-10.286 1.225-13.315 1.564-7.675.938-17.961 1.902-25.192 2.371-3.368.234-7.493.521-9.137.651-1.645.131-5.535.339-8.615.417-3.081.104-6.102-.087-6.676.017H131l2.142 3.084c6.684 9.094 17.909 20.663 27.777 28.584 9.79 7.87 19.319 14.071 30.806 20.038 9.816 5.133 11.069 5.524 14.097 4.378 3.838-1.433 14.75-7.296 21.277-11.439 11.721-7.426 21.668-15.4 30.805-24.65 10.808-10.944 16.421-18.084 23.235-29.418 3.263-5.42 7.283-13.524 6.839-13.758-.104-.079-5.064 1.172-11.016 2.71z"/></g><defs><linearGradient id="a" x1="204.5" y1="2" x2="204.5" y2="407" gradientUnits="userSpaceOnUse"><stop stop-color="#FF8B42"/><stop offset="1" stop-color="#FF6200"/></linearGradient><filter id="b" x="13.1" y="71.1" width="383.8" height="282.6" filterUnits="userSpaceOnUse" color-interpolation-filters="sRGB"><feFlood flood-opacity="0" result="BackgroundImageFix"/><feColorMatrix in="SourceAlpha" values="0 0 0 0 0 0 0 0 0 0 0 0 0 0 0 0 0 0 127 0" result="hardAlpha"/><feOffset dy="8"/><feGaussianBlur stdDeviation="9.95"/><feComposite in2="hardAlpha" operator="out"/><feColorMatrix values="0 0 0 0 0 0 0 0 0 0 0 0 0 0 0 0 0 0 0.37 0"/><feBlend in2="BackgroundImageFix" result="effect1_dropShadow_1886_13"/><feBlend in="SourceGraphic" in2="effect1_dropShadow_1886_13" result="shape"/></filter></defs></svg>