<svg width="727" height="489" viewBox="0 0 727 489" fill="none" xmlns="http://www.w3.org/2000/svg">
<path d="M354.689 0.322601C353.807 0.708069 347.395 7.37567 339.566 14.9025C323.299 30.5421 320.432 33.0753 311.609 39.3531C284.699 58.5722 255.087 69.4207 217.369 73.8813C203.032 75.5885 195.698 75.8087 178.604 75.0378C163.108 74.3219 162.833 74.3219 161.344 75.4232C158.201 77.7912 158.311 74.7073 158.09 157.09C157.815 243.824 158.035 254.838 160.682 269.156C163.439 284.189 168.53 302.083 172.5 311.5C173.548 313.923 174.353 314.894 177 315.5C182.018 316.601 200.743 318.839 211 319.5C226.44 320.546 257.145 321.251 276.5 320.149C296.407 318.938 314.366 318.332 333.556 315.909C360.797 312.495 381.365 309.521 397.246 306.658C428.568 301.041 481.119 287.879 505.051 279.674C520.767 274.332 542.052 265.631 550.268 261.281C553.577 259.574 554.239 258.913 554.956 257.041C555.672 255.113 555.783 243.714 555.783 167.829C555.728 72.89 555.893 77.2956 552.64 74.8725C551.206 73.7711 550.875 73.7712 534.001 74.4871C524.572 74.8725 514.481 74.9827 511.503 74.8175C498.379 73.8813 479.74 71.238 468.491 68.6497C462.922 67.3832 445.607 61.9864 439.982 59.7837C427.851 54.9927 410.756 45.1904 396.695 34.9476C389.692 29.8262 373.834 15.9806 367.713 9.09695C360.103 0.561279 357.16 -0.756989 354.689 0.322601Z" fill="url(#paint0_linear_1022_55)"/>
<path d="M565.5 137.308C565.5 137.308 565.5 148.349 565.5 160.684V183.044L571.499 184.385C577.289 186.148 585.119 189.562 591.461 193.086C603.206 199.639 608.389 208.23 607.066 218.803C605.687 229.762 592.729 243.254 571.113 256.25C560.801 262.418 541.942 271.449 531.41 275.249C528.983 276.13 524.737 277.837 521.98 278.994C515.529 281.802 493.637 289.016 475.605 294.193C449.688 301.682 436.177 304.766 395.978 312.366C366.532 317.983 329.497 322.719 292 325.142C257 327.403 231.432 326.857 224 326C216.932 325.857 209.187 324.83 204.5 324.5C181.671 322.958 163.109 317.817 148.937 312.31C133.552 306.308 125.336 300.416 121.31 292.486C119.546 289.071 119.435 288.411 119.435 283.564C119.435 278.443 119.546 278.113 121.806 273.487C123.626 269.742 125.225 267.539 128.92 263.685C134.269 258.068 141.327 252.01 146.897 248.265L149 247.075L148 222.174V199.306L143.588 200.631C111.55 211.589 82.71 224.42 56.5721 239.289C30.1586 254.378 12.2922 269.797 4.90299 283.895C-1.2179 295.625 -1.54876 303.499 3.57956 314.623C5.56471 318.864 9.59016 323.049 17.1999 328.776C24.534 334.283 38.9263 341.222 49.5689 344.416C52.2158 345.187 56.4618 346.563 59.0536 347.389C64.8987 349.372 87.4523 354.053 98.4809 355.595C124.067 359.229 128.699 359.67 158.035 361.432C181.03 362.809 241.357 362.203 266.667 360.386C288.614 358.734 335.155 353.943 358.481 350.914C397.632 345.847 456.36 334.448 497.441 323.93C520.657 317.983 534.277 314.238 545.967 310.493C551.592 308.731 559.643 306.253 563.889 305.041C571.885 302.728 583.355 298.819 588.152 296.726C589.696 296.065 595.762 293.697 601.662 291.494C628.737 281.417 646.99 272.991 668.661 260.656C687.079 250.138 699.155 241.327 709.743 230.698C720.275 220.125 725.624 210.268 726.506 199.805C726.947 194.959 726.12 191.324 723.308 185.156C719.393 176.786 708.971 168.25 694.578 161.697C680.903 155.419 673.017 152.831 655.427 148.646C632.377 143.194 614.896 140.771 580.156 138.183C573.594 137.687 566.037 137.308 565.5 137.308Z" fill="url(#paint1_linear_1022_55)"/>
<path d="M514.809 325.734C460.052 340.052 397.134 351.947 341.935 358.39C332.837 359.436 320.209 360.978 313.812 361.694C297.6 363.677 275.874 365.714 260.599 366.705C253.486 367.201 244.773 367.807 241.299 368.082C237.825 368.358 229.609 368.798 223.102 368.963C216.595 369.184 210.213 368.779 209 369H206.5L211.025 375.517C225.142 394.736 247.656 419.759 268.5 436.5C289.179 453.131 307.737 464.889 332 477.5C352.734 488.348 358.147 489.95 364.544 487.527C372.65 484.498 400.214 472.756 414 464C438.759 448.305 458.7 430.549 478 411C500.829 387.871 509.24 373.038 523.632 349.083C530.525 337.629 539.017 320.503 538.079 320.007C537.859 319.842 527.382 322.485 514.809 325.734Z" fill="url(#paint2_linear_1022_55)"/>
<defs>
<linearGradient id="paint0_linear_1022_55" x1="396.5" y1="426.363" x2="288.108" y2="11.3984" gradientUnits="userSpaceOnUse">
<stop stop-color="#CE5000"/>
<stop offset="1" stop-color="#CE7221"/>
</linearGradient>
<linearGradient id="paint1_linear_1022_55" x1="422" y1="422.905" x2="362.927" y2="137.323" gradientUnits="userSpaceOnUse">
<stop stop-color="#CE7221"/>
<stop offset="1" stop-color="#CE5000"/>
</linearGradient>
<linearGradient id="paint2_linear_1022_55" x1="290" y1="3.40347" x2="427.518" y2="445.825" gradientUnits="userSpaceOnUse">
<stop stop-color="#CE7221"/>
<stop offset="1" stop-color="#CE5000"/>
</linearGradient>
</defs>
</svg>
